# xmcd CD database file
#
# Track frame offsets:
#	150
#	87036
#	111589
#	177497
#	221496
#	269652
#
# Disc length: 3954 seconds
#
# Revision: 1
# Processed by: cddbd v1.5.2PL0 Copyright (c) Steve Scherf et al.
# Submitted via: jetAudio 7
#
DISCID=580f7006
DTITLE=Forró Direto - Forró
DYEAR=1900
DGENRE=Country
TTITLE0=Forró Direto 01
TTITLE1=Forró Direto 02
TTITLE2=Forró Direto 03
TTITLE3=Forró Direto 04
TTITLE4=Forró Direto 05
TTITLE5=Forró Direto 06
EXTD=
EXTT0=
EXTT1=
EXTT2=
EXTT3=
EXTT4=
EXTT5=
PLAYORDER=
